<?xml version="1.0" encoding="utf-8"?>
<!-- Generator: Adobe Illustrator 25.3.1, SVG Export Plug-In . SVG Version: 6.00 Build 0)  -->
<svg version="1.1" id="Layer_1" xmlns="http://www.w3.org/2000/svg" xmlns:xlink="http://www.w3.org/1999/xlink" x="0px" y="0px"
	 viewBox="0 0 1500 250" style="enable-background:new 0 0 1500 250;" xml:space="preserve">
<style type="text/css">
	.st0{fill:#F26422;}
</style>
<g>
	<path class="st0" d="M197.7,175.1c-2.1,0-4.1,1.7-5.9,5.2c-3.2,6-7.4,12.1-12.6,18.3c-5.2,6.3-10.3,11.2-15.2,15
		c-7.6,5.8-16.3,10.3-26.2,13.7c-9.9,3.4-19.5,5-28.9,5c-3.3,0-7.4-0.3-12.4-1l-0.9-86.8l0.9-102.3c3.2-0.7,6.5-1,10.1-1
		c15.1,0,29.4,3.3,42.9,10c13.5,6.7,24.4,15.7,32.7,27.2c2.7,3.8,5,5.6,6.9,5.6c1.2,0,2.2-0.4,3.2-1.3c1-0.9,1.4-1.8,1.4-2.9
		c0-3.9-4.8-10.4-14.4-19.3c-20.2-18.7-44.1-28.1-71.8-28.1c-16.2,0-31.2,3.4-45.1,10.1c-19.1,9.4-33.9,23-44.4,40.8
		C8,100.1,3.1,117.9,3.1,136.7c0,18.5,4.7,35.9,14.1,52.4c11.3,19.8,27.9,34.3,49.6,43.4c13.6,5.8,27.1,8.7,40.5,8.7
		c9.2,0,18.8-1.4,28.8-4.2c16.6-4.6,31.1-12.8,43.4-24.7c5.7-5.5,10.9-11.7,15.6-18.5c4.8-6.9,7.1-11.8,7.1-14.6
		C202.4,176.4,200.9,175.1,197.7,175.1z"/>
	<path class="st0" d="M359,78.1c-3.5-2.3-7.9-3.5-13.3-3.5c-8.8,0-18.2,3.5-28.2,10.5c-4.3,3.1-12,10.5-23,22.2V77.7h-74l0.2,8.4
		l0.7,58.8l-0.5,52.9l-0.2,29.4l-0.2,7.9h74.1l-0.6-57.4l0.3-55.4c8-11,15.2-18.8,21.6-23.5c6.4-4.7,13.1-7.1,20-7.1
		c2.8,0,6.3,1,10.5,3c2.5,1.2,4.8,1.7,6.8,1.7c3.2,0,5.8-0.9,7.9-2.7c2.1-1.8,3.2-4.1,3.2-6.9C364.3,83.4,362.5,80.5,359,78.1z"/>
	<path class="st0" d="M413.4,27.2c-24.2,0.2-36.3,6.8-36.3,19.9c0,13.7,12.1,20.5,36.2,20.5c12.1,0,21.5-1.8,28.2-5.4
		c6.7-3.6,10-8.6,10-15.1C451.5,33.9,438.8,27.2,413.4,27.2z"/>
	<polygon class="st0" points="376.9,83.2 377.4,110.6 377.7,135.3 377.2,182.1 376.5,235.2 450.6,235.2 450.4,222.2 449.8,192.4 
		450.2,139.3 450.5,104.4 450.8,81.9 450.8,77.7 377.1,77.7 	"/>
	<path class="st0" d="M598,190.5c-2.8,0-5.2,2.8-7.2,8.4c-2.2,5.9-5.3,10.8-9.1,14.9c-4,4-7.7,6.1-11.2,6.1c-2.6,0-4.4-1.4-5.5-4.2
		c-1.1-2.8-1.6-7.7-1.6-14.7l-0.4-30l-0.5-56l0.1-27.9h4.2c3.3,0,8.7,0.3,16.3,0.9c2,0.2,3.7,0.3,5,0.3c4.4,0,6.6-1.8,6.6-5.4
		c0-3.9-2.1-5.8-6.3-5.8c-0.9,0-1.9,0-3,0.1c-6.8,0.7-14.4,1-22.8,1l0.1-4.5l1.6-46.6c-21.2,12.3-46,23.6-74.4,33.9v16.3l-10.5-0.7
		c-0.9-0.1-2.4-0.1-4.5-0.1c-4.5,0-6.8,1.8-6.8,5.3c0,3.6,2.4,5.4,7.1,5.4c1.6,0,3.7-0.1,6.1-0.3c2.9-0.2,4.8-0.3,5.8-0.3
		c0.6,0,1.5,0,2.9,0.1v51.6l-0.1,30.4v10.8c0,11.3,0.9,20.2,2.7,26.6c1.8,6.4,5.1,12.2,10,17.4c9.3,10.3,22.5,15.4,39.5,15.4
		c18.1,0,32.8-5,44.1-14.9c4.6-4,8.6-8.8,11.8-14.2c3.3-5.4,4.9-10,4.9-13.6C602.9,192.3,601.3,190.5,598,190.5z"/>
	<polygon class="st0" points="613.2,83.2 613.6,110.6 613.9,135.3 613.5,182.1 612.8,235.2 686.9,235.2 686.6,222.2 686,192.4 
		686.5,139.3 686.7,104.4 687,81.9 687,77.7 613.3,77.7 	"/>
	<path class="st0" d="M649.7,27.2c-24.2,0.2-36.3,6.8-36.3,19.9c0,13.7,12.1,20.5,36.2,20.5c12.1,0,21.5-1.8,28.2-5.4
		c6.7-3.6,10-8.6,10-15.1C687.7,33.9,675.1,27.2,649.7,27.2z"/>
	<path class="st0" d="M866.6,119c-6.7-13.7-16.5-24.4-29.3-32.3c-13.8-8.6-28.5-12.8-44-12.8c-21.1,0.3-39.7,7.7-56,22.4
		c-17.3,15.8-26,35.6-26,59.4c0,12.2,2.5,23.8,7.4,34.8c5.9,13,14.5,23.6,25.8,31.9c14.5,10.8,30.9,16.2,49,16.2
		c10.9,0,21.3-2.1,31.3-6.2c12.2-5,22.5-12.5,31-22.4c6.1-7.2,10.8-15.5,14.4-24.8c3.5-9.3,5.3-18.6,5.3-27.8
		C875.5,143.7,872.5,131,866.6,119z M859.7,188.4c-5.9,12.1-14.7,21.8-26.4,29.2c-12.2,7.5-25,11.3-38.4,11.3
		c-1.2,0-3.2-0.1-6.2-0.3L789.1,83c3.1-0.2,5.3-0.3,6.6-0.3c16.2,0,31.3,5.8,45.1,17.5c17.1,14.4,25.7,33.3,25.7,56.4
		C866.6,168.2,864.3,178.8,859.7,188.4z"/>
	<path class="st0" d="M968,183.9c-7.8-5.7-18.1-8.5-30.9-8.5c-13,0.2-23.3,3.2-31,9.2c-7.7,5.9-11.5,13.8-11.5,23.6
		c0,6.9,2.3,13,6.9,18.2c7.9,8.8,19.8,13.3,35.6,13.3c12.6,0,22.8-3.1,30.7-9.2c7.9-6.1,11.8-14,11.8-23.7
		C979.7,197.1,975.8,189.5,968,183.9z"/>
	<path class="st0" d="M1192.4,235.2c-3.6-6.2-5.8-11.9-6.9-17.2c-1-5.3-1.3-13.3-0.9-23.9v-57.3c0-14.8-1-25.1-2.9-31
		c-1.9-5.9-6.1-11.2-12.4-15.9c-14.6-10.8-39.7-16.2-75.3-16.2c-21.6,0-39.3,3.1-52.9,9.2c-14.3,6.4-21.5,12.7-21.5,18.7
		c0,2,0.8,3.8,2.5,5.3c1.6,1.5,3.6,2.3,5.8,2.3c3,0,6.6-2.5,11-7.5c10.7-12.3,25.9-18.5,45.5-18.5c12.7,0,20.8,2.7,24.3,8.1
		c1.4,2.2,2.3,4.7,2.6,7.5c0.3,2.8,0.5,10.3,0.6,22.5v17.6c-8.2-3.9-15.5-6.7-21.8-8.1c-6.4-1.5-13.7-2.2-21.9-2.2
		c-20.2,0-37.2,5.6-50.8,16.9c-11.7,9.5-17.6,22-17.6,37.5c0,17.5,7.3,31.7,21.8,42.7c11.2,8.4,23.9,12.5,38.2,12.5
		c8.5,0,17-1.5,25.7-4.6c8.7-3.1,17.5-7.6,26.3-13.7v15.1H1192.4z M1111.5,208.5c-4.5,4.3-9.5,7.8-14.9,10.5c-5.4,2.6-10.4,4-14.8,4
		c-5.6,0-8.8-2.2-9.8-6.6c-0.4-1.6-0.6-6.2-0.7-13.8V168c0-11.5,0.5-18.5,1.4-20.9c1.7-4.4,5.4-6.6,11-6.6c6.6,0,16,3,28.1,9.1
		L1111.5,208.5z"/>
	<path class="st0" d="M1355.9,78.1c-3.5-2.3-7.9-3.5-13.3-3.5c-8.8,0-18.2,3.5-28.2,10.5c-4.3,3.1-12,10.5-23,22.2V77.7h-74l0.2,8.4
		l0.7,58.8l-0.5,52.9l-0.2,29.4l-0.2,7.9h74.1l-0.6-57.4l0.3-55.4c8-11,15.2-18.8,21.6-23.5c6.4-4.7,13.1-7.1,20-7.1
		c2.8,0,6.3,1,10.5,3c2.5,1.2,4.8,1.7,6.8,1.7c3.2,0,5.8-0.9,7.9-2.7c2.1-1.8,3.2-4.1,3.2-6.9C1361.1,83.4,1359.4,80.5,1355.9,78.1z
		"/>
	<path class="st0" d="M1494.8,190.5c-2.8,0-5.2,2.8-7.2,8.4c-2.2,5.9-5.3,10.8-9.1,14.9c-4,4-7.7,6.1-11.2,6.1
		c-2.6,0-4.4-1.4-5.5-4.2c-1.1-2.8-1.6-7.7-1.6-14.7l-0.4-30l-0.5-56l0.1-27.9h4.2c3.3,0,8.7,0.3,16.3,0.9c2,0.2,3.7,0.3,5,0.3
		c4.4,0,6.6-1.8,6.6-5.4c0-3.9-2.1-5.8-6.3-5.8c-0.9,0-1.9,0-3,0.1c-6.8,0.7-14.4,1-22.8,1l0.1-4.5l1.6-46.6
		c-21.2,12.3-46,23.6-74.4,33.9v16.3l-10.5-0.7c-0.9-0.1-2.4-0.1-4.5-0.1c-4.5,0-6.8,1.8-6.8,5.3c0,3.6,2.4,5.4,7.1,5.4
		c1.6,0,3.7-0.1,6.1-0.3c2.9-0.2,4.8-0.3,5.8-0.3c0.6,0,1.5,0,2.9,0.1v51.6l-0.1,30.4v10.8c0,11.3,0.9,20.2,2.7,26.6
		c1.8,6.4,5.1,12.2,10,17.4c9.3,10.3,22.5,15.4,39.5,15.4c18.1,0,32.8-5,44.1-14.9c4.6-4,8.6-8.8,11.8-14.2c3.3-5.4,4.9-10,4.9-13.6
		C1499.7,192.3,1498.1,190.5,1494.8,190.5z"/>
</g>
</svg>
